<?xml version="1.0" encoding="UTF-8"?><svg id="Layer_1" xmlns="http://www.w3.org/2000/svg" xmlns:xlink="http://www.w3.org/1999/xlink" viewBox="0 0 1000 1000"><defs><style>.cls-1{clip-path:url(#clippath-4);}.cls-1,.cls-2,.cls-3,.cls-4,.cls-5,.cls-6,.cls-7,.cls-8{fill:none;}.cls-9{fill:url(#linear-gradient-2);}.cls-2{clip-path:url(#clippath-2);}.cls-3{clip-path:url(#clippath-6);}.cls-10,.cls-11{fill:#127dc2;}.cls-12,.cls-11,.cls-13,.cls-14{fill-rule:evenodd;}.cls-12,.cls-15{fill:#231f20;}.cls-4{clip-path:url(#clippath-5);}.cls-16{fill:url(#linear-gradient-5);}.cls-5{clip-path:url(#clippath-3);}.cls-6{clip-rule:evenodd;}.cls-17{fill:url(#New_Gradient_Swatch_1);}.cls-18{fill:url(#New_Gradient_Swatch_1-2);}.cls-7{clip-path:url(#clippath);}.cls-19{fill:url(#linear-gradient-3);}.cls-8{clip-path:url(#clippath-1);}.cls-20{fill:url(#linear-gradient);}.cls-21{fill:url(#linear-gradient-4);}.cls-13{fill:#b79a95;}.cls-14{fill:#43535b;}</style><clipPath id="clippath"><path class="cls-6" d="m413.53,292.46c-9.2,4.97-17.85,9.59-26.06,14.13-65.16,36.04-99.75,66.16-113.19,211.89,7.42-26.94,27.71-77.3,31.34-84.46,18.75-37.04,45.51-74.49,86.16-88.99,61.28-21.87,120.21,42.09,139.51,95.62,3.74,10.39,10.84,56.73,21.23,77.83-.38-129.59-66.21-206.55-101.42-279.5,0,.04,7.25,29.26-37.57,53.47Z"/></clipPath><linearGradient id="linear-gradient" x1="406.63" y1="374.99" x2="535.61" y2="446.38" gradientUnits="userSpaceOnUse"><stop offset="0" stop-color="#0a509f"/><stop offset=".34" stop-color="#234499"/><stop offset="1" stop-color="#533090"/></linearGradient><clipPath id="clippath-1"><path class="cls-6" d="m199.37,518.93h77.21c-.29-.76-.53-1.5-.82-2.26-.67-3.21-1.29-6.37-1.9-9.52-5.68-40.24-18.12-177.19,64.26-238.04,55.55-41.03,82.57-70.39,95.53-90.32-.38-5.37-.48-10.56-.05-15.4l.46-.14c4.17-46.28,42.44-68.67,48.91-72.14.87-.03,1.38-.04,1.38-.04l-.92-.21c.31-.16.47-.24.47-.24h0s-.51,0-1.39.04c-11.7-2.53-23.64-3.74-35.71-3.74h-.02c-99.43,0-206.79,81.86-244.85,177.01-36.33,90.83-11.17,218.05-2.58,255"/></clipPath><linearGradient id="linear-gradient-2" x1="393.87" y1="147.72" x2="257.76" y2="454.4" gradientUnits="userSpaceOnUse"><stop offset="0" stop-color="#27b7ea"/><stop offset=".53" stop-color="#1687c8"/><stop offset="1" stop-color="#075ba8"/></linearGradient><clipPath id="clippath-2"><path class="cls-6" d="m552.07,518.48h15.39s9.04,0-15.39-103.65c-24.43-103.65-91.92-196.56-100.98-245.13-9.05-48.57,30.52-79.07,30.52-79.07,0,0-55.74,27.08-49.8,90.17-13.45,19.87-40.49,48.64-94.2,88.31-97.15,71.76-62.44,249.37-62.44,249.37,15.13-164.08,57.03-181.6,139.25-226.02,35.34-19.1,38.31-41.3,37.98-49.86,35.6,71.89,99.29,148.43,99.67,275.88"/></clipPath><linearGradient id="linear-gradient-3" x1="554.29" y1="304.55" x2="452.75" y2="304.55" gradientUnits="userSpaceOnUse"><stop offset="0" stop-color="#d8599f"/><stop offset=".55" stop-color="#9754a0"/><stop offset="1" stop-color="#6851a2"/></linearGradient><clipPath id="clippath-3"><path class="cls-6" d="m481.16,90.63h0c-.13.1-39.55,30.58-30.52,79.07,9.05,48.57,76.55,141.48,100.98,245.13,24.43,103.65,15.39,103.65,15.39,103.65h63.2c-10.21-25.58-12.29-55.72-8.93-87.84h0s0-.02,0-.02c1.45-13.85,3.9-28.05,7.18-42.43,17.25-75.75,56.95-156.07,88.61-211.09-25.61-.97-100.02-129.34-172.16-129.32-21.94,0-43.68,11.89-63.76,42.84Z"/></clipPath><linearGradient id="New_Gradient_Swatch_1" x1="501.21" y1="-25.49" x2="660.22" y2="602.54" gradientUnits="userSpaceOnUse"><stop offset="0" stop-color="#d8599f"/><stop offset="1" stop-color="#8f4199"/></linearGradient><clipPath id="clippath-4"><path class="cls-6" d="m546.95,19.66c-15.36.86-30.6,3.17-45.19,6.64,0,0,19.32,7.76,32.07,40.01,10.94,27.65,21.82,55.65,35.3,82.13.97,1.91,2.02,3.94,2.96,5.66,17.35,31.52,42.91,62.73,77.26,75.62-17.98,2.84-39.22-6.92-54.23-16.18,7.94,47.49,40.37,105.76,88.87,127.23-22.32-2.19-50.34-13.54-66.74-32.34,17.21,41.31,69.45,70.09,80.88,78.36-18.41,1.14-25.71,8.26-25.71,8.26,35.72,6.11,63.3,28.84,92.05,50.93l4.38-3.49c9.37-23.37,28.54-40.61,48.41-54.73,0,0-12.28-.69-25.46,1.39,8.9-22.93,14.81-44.71,14.6-69.38-.41-47.3-9.27-93.61-25.05-138.7,1.05,33.44-.06,69.25-13.66,100.35,6.78-57.26,1-111.19-28.17-161.86,3.3,24.83-.5,49.39-.5,49.39.43-20.58-3.41-48.19-16.89-64.65,8.34,23.18,9.4,49.1.65,72.31-1.41-49.25-16.1-95.43-56.55-125.59-30.26-22.56-68.02-31.76-105.84-31.76-4.49,0-8.98.13-13.45.38Z"/></clipPath><linearGradient id="linear-gradient-4" x1="729.92" y1="82.9" x2="587.49" y2="385.83" gradientUnits="userSpaceOnUse"><stop offset="0" stop-color="#27b7ea"/><stop offset=".61" stop-color="#1687c8"/><stop offset="1" stop-color="#0b67b2"/></linearGradient><clipPath id="clippath-5"><path class="cls-6" d="m585.31,54.19h-.08c-.87,0-1.71.03-2.53.07-5.74.32-10.1,1.74-12.22,4.13-8.58,9.64-3.42,44.93,22.72,76.54,13.97,16.89,47.33,43.21,65.79,30.55,20.93-14.35,12.29-53.09-7.9-78.64-17.99-22.77-47.48-32.65-65.77-32.65"/></clipPath><linearGradient id="New_Gradient_Swatch_1-2" x1="574.6" y1="61.79" x2="660.66" y2="162.84" xlink:href="#New_Gradient_Swatch_1"/><clipPath id="clippath-6"><path class="cls-6" d="m613.57,78.03h-.08c-.51,0-1.02.02-1.52.04-4.59.26-8.97,1.64-12.84,4.32-12.04,8.32-7.11,35.82,6.86,54.31,13.22,17.48,35.46,26.47,47.72,19.35,16.73-9.72,7.96-41.08-2.58-55.58-9.98-13.72-24.52-22.44-37.55-22.44"/></clipPath><linearGradient id="linear-gradient-5" x1="640.71" y1="143.79" x2="615.79" y2="95.42" gradientUnits="userSpaceOnUse"><stop offset="0" stop-color="#f48220"/><stop offset="1" stop-color="#fedd42"/></linearGradient></defs><g class="cls-7"><rect class="cls-20" x="274.28" y="238.99" width="278.24" height="279.5"/></g><g class="cls-8"><rect class="cls-9" x="165.61" y="86.92" width="318.75" height="432.01"/></g><polygon class="cls-13" points="621.28 430.63 621.28 430.65 621.27 430.65 621.28 430.63"/><path class="cls-13" d="m520.97,188.7h0s.03.02.05.03c-.02,0-.03-.02-.05-.03"/><g class="cls-2"><rect class="cls-19" x="240.46" y="90.63" width="336.04" height="427.86"/></g><g class="cls-5"><rect class="cls-17" x="441.61" y="47.76" width="275.47" height="470.72"/></g><g class="cls-1"><rect class="cls-21" x="501.76" y="19.28" width="315.52" height="426.71"/></g><path class="cls-12" d="m661.5,84.12c12.15,15.26,21.29,39.7,21.72,59.35.43,19.57-1.75,41.93,3.76,56.6,12.59,33.47,26.64,67.26,37.99,100.84,17.72,52.39,39.67,116.56,56.6,152.58-3.92.96-20.56,7.1-24.48,8.03-12.96-55.5-35.37-162.69-70.54-238.37-12.91-27.78-24.58-29.18-35.43-33.19-24.67-9.13-48.82-25.28-63.08-46.12-15.09-22.06-23.65-45.09-31.3-71.88-6.27-21.94-17.08-33.52-17.08-33.52,1.1-.08,2.2-.16,3.3-.22,42.61-2.4,90.94,11.28,118.53,45.91"/><g class="cls-4"><rect class="cls-18" x="561.9" y="54.19" width="118.01" height="123.95"/></g><g class="cls-3"><rect class="cls-16" x="587.09" y="78.03" width="83.35" height="85.14"/></g><path class="cls-12" d="m807.71,479.65c-7.17,39.65-5.45,69.85-5.45,69.85,0,0-20.51-27.38-48.29-50.01,0,0,6.58-14.36,2.93-31.55l14.32-5.29,14.32-5.29c8.06,15.56,22.18,22.28,22.18,22.28"/><path class="cls-11" d="m770.44,490.47c1.91,5.34,7.7,8.09,12.93,6.16,5.23-1.93,7.93-7.82,6.02-13.16-1.91-5.33-7.69-8.09-12.93-6.16-5.23,1.93-7.93,7.82-6.02,13.16"/><polygon class="cls-14" points="787.68 456.58 752.64 469.52 748.6 458.21 783.64 445.27 787.68 456.58"/><path class="cls-10" d="m59.71,559.03c.69-1.78,3.02-2.74,7.41-2.74,30.72,0,44.43,17.69,44.43,42.38,0,27.02-13.99,41.14-44.43,41.14-5.49,0-7.82-1.37-7.82-5.9v-72l.41-2.88Zm-12.89,70.63c0,10.01-1.51,11.79-12.48,12.75v2.61h38.67c16.59,0,29.62-4.39,38.4-12.62l1.92-2.06c8.09-8.37,11.79-19.89,11.79-32.78,0-28.94-19.61-46.49-54.17-46.49h-36.62v2.74c1.1.14,2.06.14,2.74.27l4.94,1.1,2.06,1.1c1.92,1.37,2.74,4.8,2.74,10.29v63.08Z"/><path class="cls-10" d="m147.76,614.16c-.27-1.37-.27-3.15-.27-5.07,0-9.74,3.7-24.27,14.95-24.27h.69c7.27,0,13.17,3.57,14.95,15.91l-30.31,13.44Zm43.06,7.68c-6.72,10.01-12.75,14.81-21.94,14.81-17.01-.14-19.75-12.89-20.3-16.87l45.53-20.71v-3.57c-.96.27-2.06.27-2.88.27-1.51,0-2.47-.27-3.02-.55-3.15-9.74-10.56-15.5-21.94-15.5-17.83,0-28.25,15.63-28.39,34.97.41,17.55,10.15,31.68,25.37,31.68,13.3,0,22.77-8.23,28.66-23.59l-1.1-.96Z"/><path class="cls-10" d="m199.73,555.6h4.39c4.66,0,6.72,2.06,6.72,8.64v68.57c0,7.27-1.78,9.46-11.11,10.15v2.06h32.09v-2.06c-8.64-.55-10.83-1.51-10.83-9.74v-85.71l-.27-.14-20.98,6.17v2.06Z"/><path class="cls-10" d="m255.69,596.75c4.53-4.8,11.25-9.33,15.91-9.33,7.27,0,11.11,4.94,11.11,14.95v28.25c0,9.19-1.1,11.52-9.74,12.34v2.06h28.25v-2.06c-7.82-1.51-8.5-2.33-8.5-12.34v-28.39c0-14.95-5.49-22.49-16.05-22.49l-20.98,11.93v-44.02l-.14-.27-19.06,6.17v2.06h3.15c1.78.82,5.76,1.78,5.76,6.99v68.02c0,10.01-.55,11.11-9.05,12.34v2.06h28.8v-2.06c-7.95-.96-9.46-2.06-9.46-12.34v-33.87Z"/><path class="cls-10" d="m322.06,548.06c-3.84,0-6.17,3.43-6.17,7.27,0,4.8,3.29,7.27,6.17,7.27,4.25,0,6.72-3.43,6.72-7.27l-.41-2.88c-1.23-2.88-3.29-4.39-6.31-4.39Zm-14.4,39.5v2.06h2.47c4.53,0,8.09,1.78,8.09,7.41v33.6c0,10.01-.96,11.79-11.11,12.34v2.06h32.09v-2.06c-9.33-.55-10.56-1.78-10.56-12.34v-50.47l-.27-.41-20.71,7.82Z"/><path class="cls-10" d="m466.06,571.92c0-14.4,1.23-16.73,13.03-18.1v-2.74h-30.72v2.74c10.42.96,12.89,3.43,12.89,18.1v38.26c0,25.23-11.11,30.72-26.47,30.72-16.73,0-24.27-7.82-24.27-28.8v-45.53c0-10.15.96-11.66,12.62-12.75v-2.74h-37.71v2.74c11.25.55,12.62,2.33,12.62,12.75v44.3c0,24.14,10.83,36.07,33.6,36.07s34.42-10.83,34.42-37.85v-37.16Z"/><path class="cls-10" d="m481.97,588.65h3.15c4.25,0,5.76,1.51,5.76,8.37v35.25c0,7.82-1.37,10.01-8.78,10.7v2.06h28.11v-2.06c-6.31-.41-9.19-2.06-9.19-7.41v-39.91c2.74-3.57,9.74-8.09,14.54-8.09h.55c7.13,0,10.83,4.66,10.83,13.85v29.62c0,8.5-1.65,11.25-9.19,11.93v2.06h27.7v-2.06c-6.17-.69-8.64-1.92-8.64-9.46v-40.32c0-7.27-6.86-13.44-13.85-13.44h-1.23l-20.85,11.52v-11.25l-.55-.27-18.38,6.44v2.47Z"/><path class="cls-10" d="m566.31,548.06c-3.84,0-6.17,3.43-6.17,7.27,0,4.8,3.29,7.27,6.17,7.27,4.25,0,6.72-3.43,6.72-7.27l-.41-2.88c-1.23-2.88-3.29-4.39-6.31-4.39Zm-14.4,39.5v2.06h2.47c4.53,0,8.09,1.78,8.09,7.41v33.6c0,10.01-.96,11.79-11.11,12.34v2.06h32.09v-2.06c-9.33-.55-10.56-1.78-10.56-12.34v-50.47l-.27-.41-20.71,7.82Z"/><path class="cls-10" d="m629.94,581.11v2.19c4.53.55,6.58,1.92,6.58,4.53,0,1.37-.14,2.88-.69,4.25l-14.4,36.75-14.54-36.34c-.96-1.92-1.37-3.7-1.37-5.21,0-2.33,1.65-3.29,6.31-3.98v-2.19h-25.92v2.19c5.07.55,5.76.69,12.62,16.32l17.69,43.75c.82,2.33,1.37,3.57,1.92,3.57s1.78-2.33,3.15-6.99l17.83-45.67c4.11-9.05,4.39-10.29,8.91-10.97v-2.19h-18.1Z"/><path class="cls-10" d="m663.27,614.16c-.27-1.37-.27-3.15-.27-5.07,0-9.74,3.7-24.27,14.95-24.27h.69c7.27,0,13.17,3.57,14.95,15.91l-30.31,13.44Zm43.06,7.68c-6.72,10.01-12.75,14.81-21.94,14.81-17.01-.14-19.75-12.89-20.3-16.87l45.53-20.71v-3.57c-.96.27-2.06.27-2.88.27-1.51,0-2.47-.27-3.02-.55-3.15-9.74-10.56-15.5-21.94-15.5-17.83,0-28.25,15.63-28.39,34.97.41,17.55,10.15,31.68,25.37,31.68,13.3,0,22.77-8.23,28.66-23.59l-1.1-.96Z"/><path class="cls-10" d="m717.58,589.61h3.84c3.7,0,6.03,1.92,6.03,7.95v35.66c0,6.99-.96,7.95-10.15,9.74v2.06h32.5v-2.06c-9.05-.27-12.07-2.19-12.07-10.7v-31.95c0-5.07,6.99-11.52,10.29-11.52,1.92,0,6.17,5.49,6.99,12.34l10.29-10.83c-.41-4.8-5.62-10.56-10.01-10.56l-17.55,13.44v-13.17l-.14-.27-20.02,7.68v2.19Z"/><path class="cls-10" d="m807.54,582.62c-3.02,0-8.37-2.74-13.58-2.74-11.38,0-18.24,7.82-18.24,17.42,0,7.54,4.25,13.71,15.91,20.43l8.23,4.8c5.07,2.88,7.68,6.45,7.68,10.7,0,6.58-4.94,10.15-12.34,10.15-9.74,0-17.42-4.94-21.12-19.89h-1.37l2.61,28.11h4.53c2.88-4.25,5.21-5.62,10.7-5.62.96,0,1.92,0,3.02.14.96,0,2.06.14,3.29.27,10.7,0,18.93-8.64,18.93-18.1,0-6.58-3.29-11.79-11.52-16.87l-14.95-9.19c-4.39-2.33-6.31-5.48-6.31-9.6,0-6.31,4.53-9.6,11.24-9.6,7.82,0,15.36,4.66,18.65,17.42h1.1l-2.74-20.71h-1.23c-.82.82-2.19,2.88-2.47,2.88Z"/><path class="cls-10" d="m840.73,548.06c-3.84,0-6.17,3.43-6.17,7.27,0,4.8,3.29,7.27,6.17,7.27,4.25,0,6.72-3.43,6.72-7.27l-.41-2.88c-1.24-2.88-3.29-4.39-6.31-4.39Zm-14.4,39.5v2.06h2.47c4.53,0,8.09,1.78,8.09,7.41v33.6c0,10.01-.96,11.79-11.11,12.34v2.06h32.09v-2.06c-9.33-.55-10.56-1.78-10.56-12.34v-50.47l-.27-.41-20.71,7.82Z"/><path class="cls-10" d="m882.01,581.11v-22.22c-.55.55-2.61,3.84-4.8,7.41-.14,5.76-8.64,16.05-13.71,18.38,0,.55,0,.82.14,1.1h7.82v42.65c0,12.07,3.98,17.96,11.93,17.96,6.58,0,11.93-3.43,16.18-10.56l-.96-1.65c-2.61,3.29-5.76,4.94-8.64,4.94-5.35,0-7.95-3.84-7.95-12.75v-40.59h14.4v-4.66h-14.4Z"/><path class="cls-10" d="m915.47,675.74c8.5-.14,15.08-7.95,22.22-28.25l22.22-59.79c1.37-2.74,3.15-3.98,5.9-4.39v-2.19h-17.42v2.19c4.39,0,6.58,1.1,6.58,3.57,0,.69,0,1.51-.41,2.33l-14.4,39.22-16.18-35.93c-1.23-2.06-1.65-3.98-1.65-5.35.41-1.78,3.02-3.02,8.09-3.84v-2.19h-27.29v2.06c3.57.69,6.17,2.2,7.13,4.53l16.32,36.07c2.33,5.07,7.54,17.55,7.54,21.26,0,10.01-10.42,24.55-17.01,24.82h-.27c-2.33,0-3.29,1.92-3.29,3.57,0,1.23.55,2.33,1.78,2.33h.14Z"/><path class="cls-15" d="m110.87,664.07c-5.15,0-8.28,3.31-8.28,8.09,0,5.15,3.5,8.28,8.28,8.28,5.15,0,8.09-3.49,8.09-8.28,0-5.15-3.31-8.09-8.09-8.09m-73.2,147.15h116.24c2.94,0,3.68-.37,4.97-1.66h.18l-.74,10.85,1.84.18,4.6-65.66c0-16.03-13.43-29.06-29.98-29.06h-3.68c0,4.35,3.71,7.91,8.28,7.91,12.17,0,22.07,9.47,22.07,21.15,0,12.81-11.13,23.18-24.83,23.18-11.04,0-18.39-7.2-18.39-18.03v-62.35h-1.47v.74c0,7.54-9.01,9.75-16.55,9.75h-9.57v1.66h7.73c3.59,0,5.52,2.02,5.52,5.52v39.91c0,15.7,13.09,26.12,32.74,26.12,9.72,0,18.27-4.63,23.33-11.71l-1.26,17.05c-1.35,17.69-13.24,21.15-30.9,21.15h-63.64v-.18c2.21-2.21,4.05-5.52,4.05-9.56v-107.97c0-8.83,1.1-9.56,9.93-9.56h2.76v-1.66h-43.22v1.66h6.44c8.83,0,9.75.74,9.75,9.56v108.34c0,8.83-.92,11.04-9.75,11.04h-6.44v1.66Z"/><path class="cls-15" d="m252.32,786.2c0-16.03-13.46-29.06-29.98-29.06h-3.68c0,4.35,3.71,7.91,8.28,7.91,12.17,0,22.07,9.47,22.07,21.15,0,12.81-11.13,23.18-24.83,23.18-11.04,0-18.39-7.2-18.39-18.02v-81.67h45.8v-4.97h-48.19v-.18c1.47-.74,2.39-3.86,2.39-7.72v-39.91h-1.84v21.52c0,3.99-6.1,26.3-22.81,26.3h-13.79v4.97h24.09v76.88c0,15.7,13.09,26.12,32.74,26.12,15.51,0,28.14-11.86,28.14-26.49"/><path class="cls-15" d="m314.88,750.8l50.43.64c3.13,0,5.64-2.39,5.64-5.33v-.92c0-26.27-19.44-43.78-48.68-43.78-30.87,0-55.98,24.65-55.98,55.18,0,33.66,22.19,56.1,55.42,56.1,23.02,0,40.71-10.76,49.42-28.6l-2.79-1.84c-8.09,17.01-24.83,27.13-46.63,27.13s-39.79-24.95-39.79-55.73,15.88-48.93,39.61-48.93c20.54,0,34.21,16.19,34.21,40.47,0,1.1-.37,1.66-1.47,1.66h-39.42c-11.95,0-21.67,8.52-21.67,19.04,0,4.57,3.52,8.28,7.91,8.28v-10.48c0-7.11,6.16-12.88,13.79-12.88Z"/><path class="cls-15" d="m397.44,799.81c0,6.44-3.31,9.75-9.75,9.75h-6.44v1.66h52.05v-1.47h-11.59c-6.44,0-9.93-3.31-9.93-9.75v-42.49c0-30.9,12.51-51.5,31.08-51.5v.18c-.74,1.1-1.29,2.58-1.29,4.23,0,4.41,3.86,8.28,8.28,8.28s8.09-3.86,8.09-8.28c0-3.68-2.39-6.62-5.52-7.73-2.94-1.1-6.07-1.47-9.57-1.47-15.27,0-27.87,13.15-32.74,35.87h-1.47v-.37c.83-2.57,1.47-10.67,1.47-16.92v-24.09h-1.47v.74c0,7.54-7.54,11.96-14.9,13.43l-14.16,2.94.18,1.1,10.85-.92c.25-.03.49-.03.74-.03,3.65,0,6.07,2.64,6.07,5.92v80.93Z"/><path class="cls-15" d="m555.25,734.89c0-20.08-18.88-33.48-47.27-33.48-11.04,0-19.68,3.86-25.38,8.09-1.29.92-2.76,3.68-2.94,4.23l-1.29-.37c.37-1.29.55-3.31.74-5.89l.55-9.75h-1.84l-2.02,43.41,3.31-.03.55-11.4c.67-14.29,10.3-24.98,28.51-24.98,19.65,0,32.74,11.1,32.74,27.77v37.15c0,21.03-16.06,38.07-35.87,38.07-15.57,0-25.93-9.93-25.93-24.83,0-17.87,9.41-29.8,23.54-29.8,10.67,0,19.31,7.72,19.31,17.29v8.64c4.35,0,7.91-3.71,7.91-8.28,0-11.59-12.2-20.97-27.22-20.97-22.96,0-38.26,13.46-38.26,33.66,0,17.57,15.36,29.25,38.44,29.25,13.24,0,34.58-7.73,40.1-29.8l1.26-9.2h.77c.92,24.83,20.05,41.39,48.37,41.39,33.2,0,60.15-23.64,60.15-52.79,0-16.03-13.43-29.06-29.98-29.06h-3.68c0,4.38,3.71,7.91,8.28,7.91,12.17,0,22.07,9.47,22.07,21.15,0,12.78-11.13,23.18-24.83,23.18-11.04,0-18.39-7.2-18.39-18.03v-57.75h45.8v-4.97h-48.19v-.18c1.47-.74,2.39-3.86,2.39-7.72v-39.91h-1.84v21.52c0,3.99-6.1,26.3-22.81,26.3h-11.96v4.97h22.26v52.97c0,15.66,13.09,26.12,32.74,26.12,10.24,0,19.22-5.15,24.13-12.88-6.93,19.59-28.39,33.84-53.74,33.84s-40.47-15.24-40.47-38.07v-36.79Z"/><path class="cls-15" d="m769.72,807.91h-3.13c-8.83,0-9.93-.92-9.93-9.75v-84.79c0-3.31.18-6.44.74-9.75v-1.47l-28.51.74v1.66h3.13c8.83,0,9.93.92,9.93,9.75v48.19c0,28.14-13.15,46.9-32.92,46.9-10.82,0-18.02-10.42-18.02-26.12v-85.53h-1.47v.74c0,7.51-9.38,9.75-16.92,9.75h-10.48v1.66h8.64c3.59,0,5.52,2.02,5.52,5.52v69.53c0,16.68,12.42,27.77,31.08,27.77,17.29,0,32.74-11.04,36.6-37.52h1.66v25.75c0,3.31-.18,6.81-.74,10.48v1.47c7.2-1.66,16-2.94,24.83-3.31v-1.66Z"/><path class="cls-15" d="m791.42,799.81c0,6.44-3.31,9.75-9.75,9.75h-6.44v1.66h52.05v-1.47h-11.59c-6.44,0-9.93-3.31-9.93-9.75v-42.49c0-30.9,12.51-51.5,31.08-51.5v.18c-.74,1.1-1.29,2.58-1.29,4.23,0,4.41,3.86,8.28,8.28,8.28s8.09-3.86,8.09-8.28c0-3.68-2.39-6.62-5.52-7.73-2.94-1.1-6.07-1.47-9.56-1.47-15.27,0-27.87,13.15-32.74,35.87h-1.47v-.37c.83-2.57,1.47-10.67,1.47-16.92v-24.09h-1.47v.74c0,7.54-7.54,11.96-14.9,13.43l-14.16,2.94.18,1.1,10.85-.92c.25-.03.49-.03.74-.03,3.65,0,6.07,2.64,6.07,5.92v80.93Z"/><path class="cls-15" d="m906.22,750.8l50.43.64c3.13,0,5.64-2.39,5.64-5.33v-.92c0-26.27-19.43-43.78-48.68-43.78-30.87,0-55.98,24.65-55.98,55.18,0,33.66,22.19,56.1,55.42,56.1,23.02,0,40.71-10.76,49.42-28.6l-2.79-1.84c-8.09,17.01-24.83,27.13-46.63,27.13s-39.79-24.95-39.79-55.73,15.88-48.93,39.61-48.93c20.54,0,34.21,16.19,34.21,40.47,0,1.1-.37,1.66-1.47,1.66h-39.42c-11.96,0-21.67,8.52-21.67,19.04,0,4.57,3.52,8.28,7.91,8.28v-10.48c0-7.11,6.16-12.88,13.79-12.88Z"/><path class="cls-15" d="m143.7,969.14h52.42v-1.66h-11.96c-8.83,0-9.93-.92-9.93-9.75v-49.66h7.36c14.84,0,22.81,6.81,22.81,19.5v7.54h1.66v-60.88h-1.66v11.04c0,17.66-12.51,19.5-22.81,19.5h-7.36v-54.81c0-4.05-1.84-7.36-4.05-9.56v-.18h22.26c17.66,0,32.19,6.81,33.29,26.67l.74,12.88h3.31l-3.49-53.89-1.66.12.74,12.57h-.18c-1.29-1.29-2.02-1.66-4.97-1.66h-76.52v1.66h6.44c8.83,0,9.75.92,9.75,9.75v109.44c0,8.83-.92,9.75-9.75,9.75h-6.44v1.66Z"/><path class="cls-15" d="m237.14,908.81c0,43.13,44.14,71.92,110.36,71.92,50.55,0,84.24-16.55,84.24-41.38,0-20.54-18.52-28.39-35.31-34.15-13.76-4.72-26.12-9.38-26.12-20.11,0-14.59,8.4-22.44,23.36-22.44,18.21,0,26.85,14.32,27.59,28.85l.37,7.72,3.31-.15-2.02-43.41h-1.84l.55,9.75c.18,2.57.37,4.6.74,5.89l-1.29.37c-.18-.55-1.66-3.31-2.94-4.23-5.7-4.23-13.43-8.09-24.46-8.09-21.76,0-36.23,11.92-36.23,29.8s17.23,24.28,33.41,29.83c14.07,4.84,27.1,10.64,27.1,23.33,0,20.85-27.28,34.76-68.24,34.76-58.06,0-96.75-27.59-96.75-68.98,0-27.25,15.76-45.43,39.42-45.43,20.54,0,34.21,16.19,34.21,40.47,0,1.1-.37,1.66-1.47,1.66h-38.5c-11.95,0-21.67,8.52-21.67,19.04,0,4.57,3.52,8.28,7.91,8.28v-10.48c0-7.11,6.16-12.88,13.79-12.88l49.51.64h.06c3.28,0,5.58-2.42,5.58-5.33v-.92c0-26.27-19.44-43.78-48.68-43.78-30.9,0-55.98,22.16-55.98,49.48Z"/><path class="cls-15" d="m527.2,821.99c-5.15,0-8.28,3.31-8.28,8.09,0,5.15,3.49,8.28,8.28,8.28,5.15,0,8.09-3.49,8.09-8.28,0-5.15-3.31-8.09-8.09-8.09m-49.11,45.62h36.42c3.59,0,5.52,2.02,5.52,5.52v40.1c0,15.66,13.09,26.12,32.74,26.12,11.04,0,20.57-5.98,25.2-14.68-5.43,24.59-27.53,43.01-53.89,43.01-28.63,0-47.7-14.47-47.7-36.14,0-2.27.52-4.75,1.72-7.45v-56.47Zm-14.35,56.65c0,29.25,23.02,48.74,57.57,48.74s59.59-26.95,59.59-60.15c0-16.03-13.43-29.06-29.98-29.06h-3.68c0,4.35,3.71,7.91,8.28,7.91,12.17,0,22.07,9.47,22.07,21.15,0,12.78-11.13,23.18-24.83,23.18-11.04,0-18.39-7.2-18.39-18.03v-64.74h-1.47v.74c0,5.64-4.51,8.64-12.88,8.64h-44.33v-.18c1.47-.74,2.39-3.86,2.39-7.72v-39.91h-1.84v21.52c0,3.98-6.1,26.3-22.81,26.3h-13.79v4.97h24.09v56.65Z"/><path class="cls-15" d="m579.26,860.8v1.66h2.76c6.07,0,7.48,3.03,10.85,11.4l38.99,96.93,9.93-.74,38.81-96.2c3.31-8.09,4.78-11.4,10.67-11.4h2.21v-1.66h-40.1v1.66h15.82c6.28,0,8.77,2.51,8.77,6.28,0,1.53-.43,3.25-1.23,5.12l-31.27,75.23c-1.62,3.86-1.84,6.35-1.84,7.36h-2.39c0-2.67-1.23-6.04-1.47-6.62l-32.56-78.54c-1.1-3.13-3.13-7.54-5.7-8.46v-.37h14.16v-1.66h-36.42Z"/><path class="cls-15" d="m774.04,890.41v37.15c0,21.03-16.06,38.07-35.87,38.07-15.57,0-25.93-9.93-25.93-24.83,0-17.87,9.41-29.8,23.54-29.8,10.67,0,19.31,7.72,19.31,17.29v8.64c4.35,0,7.91-3.71,7.91-8.28,0-11.59-12.2-20.97-27.22-20.97-22.96,0-38.26,13.46-38.26,33.66,0,17.57,15.36,29.25,38.44,29.25,13.24,0,34.58-7.73,40.1-29.8h1.84c.09,2.88.74,7.27,1.56,11.96,1.01,5.76,1.93,12.02,1.93,16.55v1.47c5.24-1.69,11.04-3.13,20.05-4.05l-.18-1.66-3.13.18s-2.57.18-3.68.18c-5.52,0-6.07-2.02-6.07-9.38v-63.27c0-20.08-18.88-33.47-47.27-33.47-11.04,0-19.68,3.86-25.38,8.09-1.29.92-2.76,3.68-2.94,4.23l-1.29-.37c.37-1.29.55-3.31.74-5.89l.55-9.75h-1.84l-2.02,43.41,3.31-.03.55-11.4c.67-14.29,10.3-24.98,28.51-24.98,19.65,0,32.74,11.1,32.74,27.77"/><path class="cls-15" d="m819.65,946.7c0,13.18,9.07,23.91,19.86,23.91,10.15,0,16.92-6.5,16.92-16.19,0-2.15-.37-4.2-.98-6.1l-1.47.74c.49,1.66.8,3.43.8,5.36,0,6.5-4.29,10.85-10.67,10.85s-11.83-5.09-11.83-11.34c0-2.24.52-4.75,1.72-7.42v-129.49h-1.47v.74c0,7.54-9.01,9.75-16.55,9.75h-10.48v1.66h8.64c3.59,0,5.52,2.02,5.52,5.52v112.01Z"/></svg>