<?xml version="1.0" encoding="UTF-8"?><svg id="Layer_1" xmlns="http://www.w3.org/2000/svg" xmlns:xlink="http://www.w3.org/1999/xlink" viewBox="0 0 1000 1000"><defs><style>.cls-1{clip-path:url(#clippath-4);}.cls-1,.cls-2,.cls-3,.cls-4,.cls-5,.cls-6,.cls-7,.cls-8{fill:none;}.cls-9{fill:url(#linear-gradient-2);}.cls-2{clip-path:url(#clippath-2);}.cls-3{clip-path:url(#clippath-6);}.cls-10{fill:#231f20;}.cls-10,.cls-11,.cls-12,.cls-13{fill-rule:evenodd;}.cls-4{clip-path:url(#clippath-5);}.cls-14{fill:url(#linear-gradient-5);}.cls-5{clip-path:url(#clippath-3);}.cls-6{clip-rule:evenodd;}.cls-15{fill:url(#New_Gradient_Swatch_1);}.cls-16{fill:url(#New_Gradient_Swatch_1-2);}.cls-7{clip-path:url(#clippath);}.cls-17{fill:url(#linear-gradient-3);}.cls-8{clip-path:url(#clippath-1);}.cls-18{fill:url(#linear-gradient);}.cls-11{fill:#127dc2;}.cls-19{fill:url(#linear-gradient-4);}.cls-12{fill:#b79a95;}.cls-13{fill:#43535b;}</style><clipPath id="clippath"><path class="cls-6" d="m368.37,512.27c-13.99,7.56-27.16,14.59-39.64,21.49-99.11,54.82-151.72,100.63-172.16,322.28,11.29-40.98,42.15-117.57,47.67-128.46,28.51-56.33,69.22-113.29,131.05-135.36,93.21-33.26,182.83,64.01,212.19,145.44,5.69,15.81,16.48,86.28,32.29,118.38-.58-197.1-100.7-314.15-154.25-425.1.01.05,11.02,44.5-57.14,81.33Z"/></clipPath><linearGradient id="linear-gradient" x1="357.87" y1="637.79" x2="554.06" y2="746.38" gradientUnits="userSpaceOnUse"><stop offset="0" stop-color="#0a509f"/><stop offset=".34" stop-color="#234499"/><stop offset="1" stop-color="#533090"/></linearGradient><clipPath id="clippath-1"><path class="cls-6" d="m42.64,856.72h117.44c-.44-1.16-.81-2.28-1.24-3.44-1.03-4.88-1.96-9.69-2.89-14.49-8.65-61.21-27.55-269.49,97.74-362.04,84.48-62.4,125.58-107.06,145.3-137.37-.59-8.16-.72-16.06-.07-23.43l.7-.21c6.34-70.4,64.56-104.45,74.39-109.72,1.33-.05,2.09-.06,2.1-.06l-1.4-.31c.47-.24.72-.36.72-.36h0s-.78.01-2.11.06c-17.79-3.86-35.95-5.69-54.31-5.69h-.03c-151.23.01-314.52,124.5-372.4,269.23-55.26,138.15-16.98,331.64-3.92,387.84"/></clipPath><linearGradient id="linear-gradient-2" x1="338.46" y1="292.12" x2="131.45" y2="758.58" gradientUnits="userSpaceOnUse"><stop offset="0" stop-color="#27b7ea"/><stop offset=".53" stop-color="#1687c8"/><stop offset="1" stop-color="#075ba8"/></linearGradient><clipPath id="clippath-2"><path class="cls-6" d="m579.09,856.05h23.41s13.74,0-23.41-157.65c-37.16-157.65-139.81-298.95-153.59-372.83-13.77-73.88,46.42-120.27,46.42-120.27,0,0-84.78,41.19-75.74,137.14-20.46,30.23-61.58,73.98-143.28,134.32-147.76,109.14-94.97,379.29-94.97,379.29,23.02-249.56,86.74-276.2,211.8-343.77,53.75-29.05,58.27-62.82,57.77-75.83,54.15,109.34,151.02,225.76,151.59,419.6"/></clipPath><linearGradient id="linear-gradient-3" x1="582.46" y1="530.67" x2="428.03" y2="530.67" gradientUnits="userSpaceOnUse"><stop offset="0" stop-color="#d8599f"/><stop offset=".55" stop-color="#9754a0"/><stop offset="1" stop-color="#6851a2"/></linearGradient><clipPath id="clippath-3"><path class="cls-6" d="m471.24,205.29h0c-.2.15-60.16,46.51-46.41,120.27,13.77,73.88,116.43,215.18,153.59,372.83,37.15,157.65,23.41,157.65,23.41,157.65h96.12c-15.53-38.91-18.7-84.75-13.58-133.6h-.01s.01-.03.01-.03c2.2-21.06,5.93-42.67,10.93-64.54,26.24-115.21,86.62-237.37,134.78-321.06-38.95-1.47-152.13-196.72-261.85-196.69-33.37,0-66.44,18.08-96.98,65.17Z"/></clipPath><linearGradient id="New_Gradient_Swatch_1" x1="501.73" y1="28.68" x2="743.57" y2="983.89" gradientUnits="userSpaceOnUse"><stop offset="0" stop-color="#d8599f"/><stop offset="1" stop-color="#8f4199"/></linearGradient><clipPath id="clippath-4"><path class="cls-6" d="m571.3,97.35c-23.37,1.31-46.54,4.83-68.73,10.1,0,0,29.38,11.8,48.78,60.86,16.64,42.06,33.18,84.64,53.69,124.92,1.48,2.91,3.07,6,4.51,8.61,26.39,47.93,65.26,95.41,117.51,115.01-27.35,4.32-59.65-10.52-82.48-24.61,12.08,72.23,61.41,160.86,135.17,193.51-33.94-3.33-76.57-20.59-101.5-49.19,26.17,62.84,105.64,106.61,123.01,119.19-28,1.73-39.11,12.56-39.11,12.56,54.33,9.29,96.27,43.86,140.01,77.46l6.66-5.31c14.25-35.55,43.42-61.77,73.63-83.24,0,0-18.68-1.05-38.72,2.12,13.54-34.87,22.53-68,22.21-105.52-.62-71.94-14.1-142.38-38.11-210.95,1.59,50.86-.1,105.33-20.77,152.62,10.32-87.09,1.52-169.12-42.85-246.18,5.03,37.77-.76,75.12-.76,75.12.66-31.3-5.19-73.29-25.69-98.33,12.69,35.26,14.29,74.67.99,109.98-2.14-74.91-24.49-145.14-86.02-191.01-46.03-34.32-103.45-48.31-160.98-48.31-6.82,0-13.65.2-20.46.58Z"/></clipPath><linearGradient id="linear-gradient-4" x1="849.59" y1="193.54" x2="632.97" y2="654.29" gradientUnits="userSpaceOnUse"><stop offset="0" stop-color="#27b7ea"/><stop offset=".61" stop-color="#1687c8"/><stop offset="1" stop-color="#0b67b2"/></linearGradient><clipPath id="clippath-5"><path class="cls-6" d="m629.65,149.87h-.13c-1.32,0-2.61.04-3.85.11-8.73.49-15.35,2.64-18.59,6.28-13.05,14.67-5.2,68.34,34.56,116.42,21.25,25.69,71.98,65.72,100.06,46.47,31.83-21.83,18.69-80.74-12.01-119.61-27.37-34.63-72.21-49.66-100.04-49.66"/></clipPath><linearGradient id="New_Gradient_Swatch_1-2" x1="613.36" y1="161.44" x2="744.25" y2="315.13" xlink:href="#New_Gradient_Swatch_1"/><clipPath id="clippath-6"><path class="cls-6" d="m672.62,186.13h-.11c-.78,0-1.55.02-2.32.07-6.99.39-13.64,2.5-19.53,6.58-18.31,12.66-10.82,54.48,10.44,82.6,20.1,26.59,53.93,40.26,72.57,29.43,25.45-14.78,12.11-62.48-3.93-84.53-15.19-20.87-37.3-34.13-57.12-34.13"/></clipPath><linearGradient id="linear-gradient-5" x1="713.91" y1="286.16" x2="676" y2="212.58" gradientUnits="userSpaceOnUse"><stop offset="0" stop-color="#f48220"/><stop offset="1" stop-color="#fedd42"/></linearGradient></defs><g class="cls-7"><rect class="cls-18" x="156.57" y="430.94" width="423.2" height="425.1"/></g><g class="cls-8"><rect class="cls-9" x="-8.7" y="199.66" width="484.81" height="657.07"/></g><polygon class="cls-12" points="684.36 722.42 684.36 722.45 684.34 722.46 684.36 722.42"/><path class="cls-12" d="m531.78,354.46h0s.04.03.07.04c-.03-.02-.04-.03-.07-.04"/><g class="cls-2"><rect class="cls-17" x="105.14" y="205.29" width="511.1" height="650.75"/></g><g class="cls-5"><rect class="cls-15" x="411.08" y="140.1" width="418.99" height="715.95"/></g><g class="cls-1"><rect class="cls-19" x="502.57" y="96.77" width="479.89" height="649.01"/></g><path class="cls-10" d="m745.53,195.4c18.49,23.21,32.38,60.39,33.04,90.27.66,29.77-2.67,63.77,5.72,86.08,19.15,50.91,40.52,102.3,57.78,153.37,26.95,79.69,60.33,177.29,86.08,232.08-5.97,1.46-31.26,10.79-37.23,12.22-19.72-84.41-53.79-247.44-107.28-362.55-19.63-42.25-37.38-44.38-53.89-50.49-37.53-13.88-74.26-38.46-95.94-70.15-22.95-33.56-35.96-68.58-47.6-109.33-9.53-33.38-25.98-50.99-25.98-50.99,1.67-.13,3.35-.24,5.03-.33,64.81-3.65,138.32,17.15,180.27,69.83"/><g class="cls-4"><rect class="cls-16" x="594.04" y="149.87" width="179.5" height="188.53"/></g><g class="cls-3"><rect class="cls-14" x="632.35" y="186.13" width="126.77" height="129.5"/></g><path class="cls-10" d="m967.91,796.99c-10.91,60.3-8.3,106.24-8.3,106.24,0,0-31.19-41.64-73.45-76.06,0,0,10.01-21.84,4.46-47.99l21.78-8.04,21.78-8.04c12.26,23.67,33.73,33.89,33.73,33.89"/><path class="cls-11" d="m911.21,813.44c2.9,8.12,11.7,12.31,19.66,9.37,7.96-2.94,12.06-11.9,9.16-20.01-2.9-8.11-11.7-12.31-19.66-9.37-7.96,2.94-12.06,11.9-9.16,20.01"/><polygon class="cls-13" points="937.45 761.89 884.15 781.57 878 764.37 931.3 744.69 937.45 761.89"/></svg>