<?xml version="1.0" standalone="no"?>
<svg xmlns:xlink="http://www.w3.org/1999/xlink" id="wave" style="transform:rotate(0deg); transition: 0.3s" viewBox="0 0 1440 450" version="1.1" xmlns="http://www.w3.org/2000/svg"><defs><linearGradient id="sw-gradient-0" x1="0" x2="0" y1="1" y2="0"><stop stop-color="rgba(243, 106, 62, 1)" offset="0%"/><stop stop-color="rgba(134.651, 130.018, 119.779, 1)" offset="100%"/></linearGradient></defs><path style="transform:translate(0, 0px); opacity:1" fill="url(#sw-gradient-0)" d="M0,270L60,240C120,210,240,150,360,142.5C480,135,600,180,720,195C840,210,960,195,1080,157.5C1200,120,1320,60,1440,67.5C1560,75,1680,150,1800,195C1920,240,2040,255,2160,262.5C2280,270,2400,270,2520,232.5C2640,195,2760,120,2880,90C3000,60,3120,75,3240,120C3360,165,3480,240,3600,232.5C3720,225,3840,135,3960,142.5C4080,150,4200,255,4320,315C4440,375,4560,390,4680,337.5C4800,285,4920,165,5040,120C5160,75,5280,105,5400,157.5C5520,210,5640,285,5760,315C5880,345,6000,330,6120,322.5C6240,315,6360,315,6480,315C6600,315,6720,315,6840,315C6960,315,7080,315,7200,292.5C7320,270,7440,225,7560,240C7680,255,7800,330,7920,337.5C8040,345,8160,285,8280,240C8400,195,8520,165,8580,150L8640,135L8640,450L8580,450C8520,450,8400,450,8280,450C8160,450,8040,450,7920,450C7800,450,7680,450,7560,450C7440,450,7320,450,7200,450C7080,450,6960,450,6840,450C6720,450,6600,450,6480,450C6360,450,6240,450,6120,450C6000,450,5880,450,5760,450C5640,450,5520,450,5400,450C5280,450,5160,450,5040,450C4920,450,4800,450,4680,450C4560,450,4440,450,4320,450C4200,450,4080,450,3960,450C3840,450,3720,450,3600,450C3480,450,3360,450,3240,450C3120,450,3000,450,2880,450C2760,450,2640,450,2520,450C2400,450,2280,450,2160,450C2040,450,1920,450,1800,450C1680,450,1560,450,1440,450C1320,450,1200,450,1080,450C960,450,840,450,720,450C600,450,480,450,360,450C240,450,120,450,60,450L0,450Z"/></svg>